<mxfile host="app.diagrams.net" modified="2023-07-31T13:41:31.431Z" agent="Mozilla/5.0 (Windows NT 10.0; Win64; x64; rv:109.0) Gecko/20100101 Firefox/115.0" etag="Y18ecq1jy1KvsZOypiz-" version="21.6.6" type="device">
  <diagram id="C5RBs43oDa-KdzZeNtuy" name="Page-1">
    <mxGraphModel dx="1195" dy="685" grid="1" gridSize="10" guides="1" tooltips="1" connect="1" arrows="1" fold="1" page="1" pageScale="1" pageWidth="827" pageHeight="1169" math="0" shadow="0">
      <root>
        <mxCell id="WIyWlLk6GJQsqaUBKTNV-0" />
        <mxCell id="WIyWlLk6GJQsqaUBKTNV-1" parent="WIyWlLk6GJQsqaUBKTNV-0" />
        <mxCell id="d2XkHuFRYm_FKd7dxbLS-3" value="0x123" style="rounded=0;whiteSpace=wrap;html=1;" vertex="1" parent="WIyWlLk6GJQsqaUBKTNV-1">
          <mxGeometry x="330" y="100" width="50" height="20" as="geometry" />
        </mxCell>
        <mxCell id="d2XkHuFRYm_FKd7dxbLS-4" value="0x11" style="rounded=0;whiteSpace=wrap;html=1;" vertex="1" parent="WIyWlLk6GJQsqaUBKTNV-1">
          <mxGeometry x="380" y="100" width="50" height="20" as="geometry" />
        </mxCell>
        <mxCell id="d2XkHuFRYm_FKd7dxbLS-5" value="0x45" style="rounded=0;whiteSpace=wrap;html=1;" vertex="1" parent="WIyWlLk6GJQsqaUBKTNV-1">
          <mxGeometry x="430" y="100" width="50" height="20" as="geometry" />
        </mxCell>
        <mxCell id="d2XkHuFRYm_FKd7dxbLS-6" value="0x67" style="rounded=0;whiteSpace=wrap;html=1;" vertex="1" parent="WIyWlLk6GJQsqaUBKTNV-1">
          <mxGeometry x="480" y="100" width="50" height="20" as="geometry" />
        </mxCell>
        <mxCell id="d2XkHuFRYm_FKd7dxbLS-7" value="0x11" style="rounded=0;whiteSpace=wrap;html=1;" vertex="1" parent="WIyWlLk6GJQsqaUBKTNV-1">
          <mxGeometry x="530" y="100" width="50" height="20" as="geometry" />
        </mxCell>
        <mxCell id="d2XkHuFRYm_FKd7dxbLS-8" value="0x21" style="rounded=0;whiteSpace=wrap;html=1;" vertex="1" parent="WIyWlLk6GJQsqaUBKTNV-1">
          <mxGeometry x="580" y="100" width="50" height="20" as="geometry" />
        </mxCell>
        <mxCell id="d2XkHuFRYm_FKd7dxbLS-9" value="0x12" style="rounded=0;whiteSpace=wrap;html=1;" vertex="1" parent="WIyWlLk6GJQsqaUBKTNV-1">
          <mxGeometry x="630" y="100" width="50" height="20" as="geometry" />
        </mxCell>
        <mxCell id="d2XkHuFRYm_FKd7dxbLS-10" value="0x22" style="rounded=0;whiteSpace=wrap;html=1;" vertex="1" parent="WIyWlLk6GJQsqaUBKTNV-1">
          <mxGeometry x="680" y="100" width="50" height="20" as="geometry" />
        </mxCell>
        <mxCell id="d2XkHuFRYm_FKd7dxbLS-11" value="0x11" style="rounded=0;whiteSpace=wrap;html=1;" vertex="1" parent="WIyWlLk6GJQsqaUBKTNV-1">
          <mxGeometry x="730" y="100" width="50" height="20" as="geometry" />
        </mxCell>
        <mxCell id="d2XkHuFRYm_FKd7dxbLS-15" value="CAN ID" style="rounded=0;whiteSpace=wrap;html=1;" vertex="1" parent="WIyWlLk6GJQsqaUBKTNV-1">
          <mxGeometry x="330" y="80" width="50" height="20" as="geometry" />
        </mxCell>
        <mxCell id="d2XkHuFRYm_FKd7dxbLS-16" value="&lt;b&gt;CAN Frame&lt;/b&gt;" style="rounded=0;whiteSpace=wrap;html=1;" vertex="1" parent="WIyWlLk6GJQsqaUBKTNV-1">
          <mxGeometry x="330" y="60" width="450" height="20" as="geometry" />
        </mxCell>
        <mxCell id="d2XkHuFRYm_FKd7dxbLS-17" value="CAN ID" style="rounded=0;whiteSpace=wrap;html=1;" vertex="1" parent="WIyWlLk6GJQsqaUBKTNV-1">
          <mxGeometry x="40" y="200" width="100" height="20" as="geometry" />
        </mxCell>
        <mxCell id="d2XkHuFRYm_FKd7dxbLS-18" value="&lt;b&gt;sensorBuffer[34]&lt;/b&gt;" style="rounded=0;whiteSpace=wrap;html=1;" vertex="1" parent="WIyWlLk6GJQsqaUBKTNV-1">
          <mxGeometry x="40" y="150" width="200" height="50" as="geometry" />
        </mxCell>
        <mxCell id="d2XkHuFRYm_FKd7dxbLS-19" value="0x123" style="rounded=0;whiteSpace=wrap;html=1;" vertex="1" parent="WIyWlLk6GJQsqaUBKTNV-1">
          <mxGeometry x="140" y="200" width="100" height="20" as="geometry" />
        </mxCell>
        <mxCell id="d2XkHuFRYm_FKd7dxbLS-20" value="name" style="rounded=0;whiteSpace=wrap;html=1;" vertex="1" parent="WIyWlLk6GJQsqaUBKTNV-1">
          <mxGeometry x="40" y="220" width="100" height="20" as="geometry" />
        </mxCell>
        <mxCell id="d2XkHuFRYm_FKd7dxbLS-21" value="&quot;voltage&quot;" style="rounded=0;whiteSpace=wrap;html=1;" vertex="1" parent="WIyWlLk6GJQsqaUBKTNV-1">
          <mxGeometry x="140" y="220" width="100" height="20" as="geometry" />
        </mxCell>
        <mxCell id="d2XkHuFRYm_FKd7dxbLS-26" value="value" style="rounded=0;whiteSpace=wrap;html=1;" vertex="1" parent="WIyWlLk6GJQsqaUBKTNV-1">
          <mxGeometry x="40" y="240" width="100" height="20" as="geometry" />
        </mxCell>
        <mxCell id="d2XkHuFRYm_FKd7dxbLS-27" value="0x4567" style="rounded=0;whiteSpace=wrap;html=1;" vertex="1" parent="WIyWlLk6GJQsqaUBKTNV-1">
          <mxGeometry x="140" y="240" width="100" height="20" as="geometry" />
        </mxCell>
        <mxCell id="d2XkHuFRYm_FKd7dxbLS-28" value="B1" style="rounded=0;whiteSpace=wrap;html=1;" vertex="1" parent="WIyWlLk6GJQsqaUBKTNV-1">
          <mxGeometry x="40" y="260" width="100" height="20" as="geometry" />
        </mxCell>
        <mxCell id="d2XkHuFRYm_FKd7dxbLS-29" value="2" style="rounded=0;whiteSpace=wrap;html=1;" vertex="1" parent="WIyWlLk6GJQsqaUBKTNV-1">
          <mxGeometry x="140" y="260" width="100" height="20" as="geometry" />
        </mxCell>
        <mxCell id="d2XkHuFRYm_FKd7dxbLS-34" value="B2" style="rounded=0;whiteSpace=wrap;html=1;" vertex="1" parent="WIyWlLk6GJQsqaUBKTNV-1">
          <mxGeometry x="40" y="280" width="100" height="20" as="geometry" />
        </mxCell>
        <mxCell id="d2XkHuFRYm_FKd7dxbLS-35" value="1" style="rounded=0;whiteSpace=wrap;html=1;" vertex="1" parent="WIyWlLk6GJQsqaUBKTNV-1">
          <mxGeometry x="140" y="280" width="100" height="20" as="geometry" />
        </mxCell>
        <mxCell id="d2XkHuFRYm_FKd7dxbLS-36" value="B3" style="rounded=0;whiteSpace=wrap;html=1;" vertex="1" parent="WIyWlLk6GJQsqaUBKTNV-1">
          <mxGeometry x="40" y="300" width="100" height="20" as="geometry" />
        </mxCell>
        <mxCell id="d2XkHuFRYm_FKd7dxbLS-37" value="-1" style="rounded=0;whiteSpace=wrap;html=1;" vertex="1" parent="WIyWlLk6GJQsqaUBKTNV-1">
          <mxGeometry x="140" y="300" width="100" height="20" as="geometry" />
        </mxCell>
        <mxCell id="d2XkHuFRYm_FKd7dxbLS-38" value="B4" style="rounded=0;whiteSpace=wrap;html=1;" vertex="1" parent="WIyWlLk6GJQsqaUBKTNV-1">
          <mxGeometry x="40" y="320" width="100" height="20" as="geometry" />
        </mxCell>
        <mxCell id="d2XkHuFRYm_FKd7dxbLS-39" value="-1" style="rounded=0;whiteSpace=wrap;html=1;" vertex="1" parent="WIyWlLk6GJQsqaUBKTNV-1">
          <mxGeometry x="140" y="320" width="100" height="20" as="geometry" />
        </mxCell>
        <mxCell id="d2XkHuFRYm_FKd7dxbLS-42" value="0" style="rounded=0;whiteSpace=wrap;html=1;" vertex="1" parent="WIyWlLk6GJQsqaUBKTNV-1">
          <mxGeometry x="380" y="80" width="50" height="20" as="geometry" />
        </mxCell>
        <mxCell id="d2XkHuFRYm_FKd7dxbLS-43" value="1" style="rounded=0;whiteSpace=wrap;html=1;" vertex="1" parent="WIyWlLk6GJQsqaUBKTNV-1">
          <mxGeometry x="430" y="80" width="50" height="20" as="geometry" />
        </mxCell>
        <mxCell id="d2XkHuFRYm_FKd7dxbLS-44" value="2" style="rounded=0;whiteSpace=wrap;html=1;" vertex="1" parent="WIyWlLk6GJQsqaUBKTNV-1">
          <mxGeometry x="480" y="80" width="50" height="20" as="geometry" />
        </mxCell>
        <mxCell id="d2XkHuFRYm_FKd7dxbLS-45" value="3" style="rounded=0;whiteSpace=wrap;html=1;" vertex="1" parent="WIyWlLk6GJQsqaUBKTNV-1">
          <mxGeometry x="530" y="80" width="50" height="20" as="geometry" />
        </mxCell>
        <mxCell id="d2XkHuFRYm_FKd7dxbLS-46" value="4" style="rounded=0;whiteSpace=wrap;html=1;" vertex="1" parent="WIyWlLk6GJQsqaUBKTNV-1">
          <mxGeometry x="580" y="80" width="50" height="20" as="geometry" />
        </mxCell>
        <mxCell id="d2XkHuFRYm_FKd7dxbLS-47" value="5" style="rounded=0;whiteSpace=wrap;html=1;" vertex="1" parent="WIyWlLk6GJQsqaUBKTNV-1">
          <mxGeometry x="630" y="80" width="50" height="20" as="geometry" />
        </mxCell>
        <mxCell id="d2XkHuFRYm_FKd7dxbLS-48" value="6" style="rounded=0;whiteSpace=wrap;html=1;" vertex="1" parent="WIyWlLk6GJQsqaUBKTNV-1">
          <mxGeometry x="680" y="80" width="50" height="20" as="geometry" />
        </mxCell>
        <mxCell id="d2XkHuFRYm_FKd7dxbLS-49" value="7" style="rounded=0;whiteSpace=wrap;html=1;" vertex="1" parent="WIyWlLk6GJQsqaUBKTNV-1">
          <mxGeometry x="730" y="80" width="50" height="20" as="geometry" />
        </mxCell>
        <mxCell id="d2XkHuFRYm_FKd7dxbLS-50" value="" style="curved=1;endArrow=classic;html=1;rounded=0;" edge="1" parent="WIyWlLk6GJQsqaUBKTNV-1">
          <mxGeometry width="50" height="50" relative="1" as="geometry">
            <mxPoint x="280" y="280" as="sourcePoint" />
            <mxPoint x="540" y="140" as="targetPoint" />
            <Array as="points">
              <mxPoint x="400" y="300" />
              <mxPoint x="590" y="230" />
            </Array>
          </mxGeometry>
        </mxCell>
        <mxCell id="d2XkHuFRYm_FKd7dxbLS-52" value="bytes 1 and 2" style="edgeLabel;html=1;align=center;verticalAlign=middle;resizable=0;points=[];" vertex="1" connectable="0" parent="d2XkHuFRYm_FKd7dxbLS-50">
          <mxGeometry x="-0.2456" y="6" relative="1" as="geometry">
            <mxPoint x="45" y="-11" as="offset" />
          </mxGeometry>
        </mxCell>
        <mxCell id="d2XkHuFRYm_FKd7dxbLS-51" value="" style="shape=curlyBracket;whiteSpace=wrap;html=1;rounded=1;flipH=1;labelPosition=right;verticalLabelPosition=middle;align=left;verticalAlign=middle;size=0.5;" vertex="1" parent="WIyWlLk6GJQsqaUBKTNV-1">
          <mxGeometry x="250" y="260" width="20" height="40" as="geometry" />
        </mxCell>
        <mxCell id="d2XkHuFRYm_FKd7dxbLS-54" value="" style="shape=curlyBracket;whiteSpace=wrap;html=1;rounded=1;flipH=1;labelPosition=right;verticalLabelPosition=middle;align=left;verticalAlign=middle;direction=north;size=0.5;" vertex="1" parent="WIyWlLk6GJQsqaUBKTNV-1">
          <mxGeometry x="430" y="130" width="100" height="20" as="geometry" />
        </mxCell>
        <mxCell id="d2XkHuFRYm_FKd7dxbLS-55" value="" style="curved=1;endArrow=classic;html=1;rounded=0;" edge="1" parent="WIyWlLk6GJQsqaUBKTNV-1">
          <mxGeometry width="50" height="50" relative="1" as="geometry">
            <mxPoint x="480" y="160" as="sourcePoint" />
            <mxPoint x="250" y="250" as="targetPoint" />
            <Array as="points">
              <mxPoint x="480" y="220" />
              <mxPoint x="300" y="250" />
            </Array>
          </mxGeometry>
        </mxCell>
        <mxCell id="d2XkHuFRYm_FKd7dxbLS-56" value="value of bytes 1 and 2" style="edgeLabel;html=1;align=center;verticalAlign=middle;resizable=0;points=[];" vertex="1" connectable="0" parent="d2XkHuFRYm_FKd7dxbLS-55">
          <mxGeometry x="-0.0527" y="-6" relative="1" as="geometry">
            <mxPoint as="offset" />
          </mxGeometry>
        </mxCell>
        <mxCell id="d2XkHuFRYm_FKd7dxbLS-59" value="=" style="ellipse;whiteSpace=wrap;html=1;" vertex="1" parent="WIyWlLk6GJQsqaUBKTNV-1">
          <mxGeometry x="300" y="160" width="30" height="30" as="geometry" />
        </mxCell>
        <mxCell id="d2XkHuFRYm_FKd7dxbLS-62" value="" style="endArrow=none;html=1;rounded=0;curved=1;entryX=0.203;entryY=0.872;entryDx=0;entryDy=0;entryPerimeter=0;" edge="1" parent="WIyWlLk6GJQsqaUBKTNV-1" target="d2XkHuFRYm_FKd7dxbLS-59">
          <mxGeometry width="50" height="50" relative="1" as="geometry">
            <mxPoint x="240" y="210" as="sourcePoint" />
            <mxPoint x="300" y="190" as="targetPoint" />
            <Array as="points">
              <mxPoint x="280" y="210" />
            </Array>
          </mxGeometry>
        </mxCell>
        <mxCell id="d2XkHuFRYm_FKd7dxbLS-63" value="" style="endArrow=none;html=1;rounded=0;curved=1;entryX=0.552;entryY=0.998;entryDx=0;entryDy=0;entryPerimeter=0;exitX=1;exitY=0.333;exitDx=0;exitDy=0;exitPerimeter=0;" edge="1" parent="WIyWlLk6GJQsqaUBKTNV-1" source="d2XkHuFRYm_FKd7dxbLS-59" target="d2XkHuFRYm_FKd7dxbLS-3">
          <mxGeometry width="50" height="50" relative="1" as="geometry">
            <mxPoint x="325" y="160" as="sourcePoint" />
            <mxPoint x="385" y="140" as="targetPoint" />
            <Array as="points">
              <mxPoint x="360" y="150" />
            </Array>
          </mxGeometry>
        </mxCell>
        <mxCell id="d2XkHuFRYm_FKd7dxbLS-66" value="" style="edgeStyle=orthogonalEdgeStyle;curved=1;rounded=0;orthogonalLoop=1;jettySize=auto;html=1;" edge="1" parent="WIyWlLk6GJQsqaUBKTNV-1" source="d2XkHuFRYm_FKd7dxbLS-64" target="d2XkHuFRYm_FKd7dxbLS-65">
          <mxGeometry relative="1" as="geometry" />
        </mxCell>
        <mxCell id="d2XkHuFRYm_FKd7dxbLS-64" value="" style="shape=curlyBracket;whiteSpace=wrap;html=1;rounded=1;flipH=1;labelPosition=right;verticalLabelPosition=middle;align=left;verticalAlign=middle;" vertex="1" parent="WIyWlLk6GJQsqaUBKTNV-1">
          <mxGeometry x="250" y="300" width="20" height="40" as="geometry" />
        </mxCell>
        <mxCell id="d2XkHuFRYm_FKd7dxbLS-65" value="&lt;div&gt;message on 2 bytes&lt;/div&gt;&lt;div&gt;-&amp;gt; bytes 3 and 4 unused&lt;br&gt;&lt;/div&gt;" style="whiteSpace=wrap;html=1;align=left;rounded=1;" vertex="1" parent="WIyWlLk6GJQsqaUBKTNV-1">
          <mxGeometry x="595" y="305" width="145" height="30" as="geometry" />
        </mxCell>
      </root>
    </mxGraphModel>
  </diagram>
</mxfile>
